<?xml version="1.0" encoding="iso-8859-1"?>
<!-- Generator: Adobe Illustrator 19.0.0, SVG Export Plug-In . SVG Version: 6.00 Build 0)  -->
<svg version="1.1" id="Capa_1" xmlns="http://www.w3.org/2000/svg" xmlns:xlink="http://www.w3.org/1999/xlink" x="0px" y="0px"
	 viewBox="0 0 512 512" style="enable-background:new 0 0 512 512;" xml:space="preserve">
<g>
	<path style="fill:#ECECEC;" d="M221.953,328.381c0.21,0.045-3.155-0.708-3.046-0.682L187.639,401l-64.544-71.382l1.256-3.729
		c-27.713,8.585-57.052,17.373-74.459,23.867C14.402,362.999,10,500.96,10,502h210.5l11-112L221.953,328.381z"/>
	<path style="fill:#ECECEC;" d="M462.262,350.36c-17.415-6.498-46.608-15.224-74.38-23.781l1.024,3.039L324.361,401l-31.268-73.302
		c0.044-0.01-3.233,0.723-3.046,0.682L280.5,390l11,112H502C502,502,500.881,364.77,462.262,350.36z"/>
</g>
<path style="fill:#EE3C32;" d="M221.953,328.381L231.5,390h49l9.547-61.619C279.071,330.744,267.683,332,256,332
	C244.317,332,232.93,330.744,221.953,328.381z"/>
<g>
	<path style="fill:#ECECEC;" d="M293.092,327.698L324.361,401l64.544-71.382l-16.106-47.813
		C351.607,304.137,324.078,320.392,293.092,327.698z"/>
	<path style="fill:#ECECEC;" d="M139.201,281.805l-16.106,47.813L187.639,401l31.268-73.302
		C187.922,320.392,160.394,304.137,139.201,281.805z"/>
</g>
<polygon style="fill:#EE3C32;" points="291.5,502 220.5,502 231.5,390 280.5,390 "/>
<path style="fill:#AAAAA0;" d="M256,10C167.082,10,95,82.082,95,171s72.082,161,161,161s161-72.082,161-161S344.918,10,256,10z"/>
<circle style="fill:#ECECEC;" cx="256" cy="171" r="121"/>
<g>
	<path style="fill:#231F20;" d="M256,302c72.234,0,131-58.767,131-131S328.234,40,256,40S125,98.767,125,171S183.766,302,256,302z
		 M153.615,161h-8.16C150.233,107.758,192.758,65.232,246,60.456v8.16c0,5.522,4.477,10,10,10c5.523,0,10-4.478,10-10v-8.16
		c53.242,4.777,95.767,47.302,100.545,100.544h-8.16c-5.523,0-10,4.478-10,10s4.477,10,10,10h8.16
		c-4.777,53.242-47.303,95.768-100.545,100.544v-8.16c0-5.522-4.477-10-10-10c-5.523,0-10,4.478-10,10v8.16
		c-53.242-4.777-95.767-47.302-100.545-100.544h8.16c5.523,0,10-4.478,10-10S159.138,161,153.615,161z"/>
	<path style="fill:#231F20;" d="M256,181h18.42c5.52,0,10-4.49,10-10s-4.48-10-10-10H266v-51.57c0-5.52-4.49-10-10-10
		c-5.51,0-10,4.48-10,10c0,0,0,61.465,0,61.57C246,176.383,250.638,181,256,181z"/>
	<path style="fill:#231F20;" d="M314.42,181c5.52,0,10-4.49,10-10s-4.48-10-10-10c-5.51,0-10,4.49-10,10S308.91,181,314.42,181z"/>
	<path style="fill:#231F20;" d="M506.514,430.184c-7.434-52.558-20.765-81.732-40.757-89.192
		c-14.873-5.55-67.137-21.572-70.036-22.463l-11.594-34.418C410.79,253.943,427,214.332,427,171C427,76.71,350.29,0,256,0
		S85,76.71,85,171c0,43.332,16.21,82.943,42.872,113.11l-11.365,33.738c-3.34,1.031-55.526,17.098-70.111,22.54
		c-18.643,6.956-31.611,35.924-39.645,88.558C1.036,466.397,0,501.712,0,502c0,5.522,4.477,10,10,10c0,0,491.523,0,492,0
		c5.348,0,10.046-4.544,10-10.082C511.988,500.49,511.655,466.53,506.514,430.184z M327.426,382.7l-20.644-48.397
		c22.954-7.153,43.843-19.027,61.538-34.473l9.239,27.428L327.426,382.7z M105,171c0-83.262,67.738-151,151-151s151,67.738,151,151
		s-67.738,151-151,151S105,254.262,105,171z M233.961,340.569C241.178,341.504,248.532,342,256,342
		c7.468,0,14.822-0.496,22.039-1.431L271.93,380h-31.86L233.961,340.569z M205.219,334.303L184.574,382.7l-50.132-55.442
		l9.239-27.428C161.376,315.277,182.265,327.15,205.219,334.303z M94.5,492v-47c0-5.522-4.477-10-10-10s-10,4.478-10,10v47H20.468
		c0.723-12.968,2.437-36.628,6.188-60.901c9.433-61.047,22.846-70.522,26.732-71.973c14.038-5.237,62.507-20.16,64.204-20.684
		c10.668,11.798,62.511,69.132,62.63,69.265c4.774,5.279,13.84,3.722,16.616-2.783l19.7-46.182l4.887,31.54L211.434,492H94.5z
		 M231.53,492l9.036-92h30.868l9.036,92H231.53z M437.5,492v-47c0-5.522-4.477-10-10-10s-10,4.478-10,10v47H300.566l-9.99-101.718
		l4.887-31.54c8.832,20.705,19.676,46.126,19.7,46.182c2.812,6.592,11.81,8.098,16.616,2.783l62.203-68.792
		c1.494,0.459,50.471,15.474,64.784,20.815c4.348,1.622,19.211,11.687,27.92,73.073c3.336,23.515,4.587,46.507,5.05,59.197
		L437.5,492L437.5,492z"/>
</g>
<g>
</g>
<g>
</g>
<g>
</g>
<g>
</g>
<g>
</g>
<g>
</g>
<g>
</g>
<g>
</g>
<g>
</g>
<g>
</g>
<g>
</g>
<g>
</g>
<g>
</g>
<g>
</g>
<g>
</g>
</svg>
